<?xml version="1.0" encoding="UTF-8"?>
<svg width="370px" height="295px" viewBox="0 0 370 295" version="1.1" xmlns="http://www.w3.org/2000/svg" xmlns:xlink="http://www.w3.org/1999/xlink">
    <!-- Generator: Sketch 48.2 (47327) - http://www.bohemiancoding.com/sketch -->
    <title>sørkite_logo</title>
    <desc>Created with Sketch.</desc>
    <defs></defs>
    <g id="Page-1" stroke="none" stroke-width="1" fill="none" fill-rule="evenodd">
        <path d="M227.066185,21.4544171 C237.492212,18.1328276 244.423346,15.9030814 247.859587,14.7651785 C253.013949,13.0583242 265.762172,5.86011105 270.974192,4.789475 C276.186211,3.71883896 290.8749,4.789475 295.041136,4.789475 C299.207371,4.789475 327.710943,20.5239479 341.151054,57.2625702 C354.591165,94.0011926 362.777505,118.258008 363.041933,146.869936 C363.306361,175.481864 357.093292,224.293722 350.480599,241.951761 C343.867905,259.6098 329.959577,273.244753 322.918431,278.528347 C315.877284,283.81194 298.053231,290.20991 285.977014,290.848117 C277.926202,291.273588 260.80199,291.273588 234.604377,290.848117 C230.617409,291.291481 228.623925,290.055164 228.623925,287.139163 C228.623925,282.765163 231.649939,284.628089 234.604377,282.765163 C237.558816,280.902236 236.921603,275.465552 234.604377,270.978225 C232.287151,266.490898 231.828875,268.594395 231.828875,263.649786 C231.828875,258.705177 237.380873,257.237899 240.238885,245.505637 C243.096897,233.773374 243.428923,195.128085 241.912934,175.818861 C240.396946,156.509637 233.721624,105.310966 230.516675,88.9263578 C227.311725,72.5417494 224.714165,63.3941237 222.059942,57.2625702 C219.405719,51.1310167 218.99516,51.1757508 219.405719,46.1068806 C219.679426,42.7276339 221.303439,38.8480279 224.277759,34.4680628 L227.066185,26.0441354 L227.066185,21.4544171 Z" id="Path" fill="#888888"></path>
        <path d="M83.5015705,160.94161 L83.9048034,160.19672 C84.140769,159.747549 84.4069912,159.371243 84.7034699,159.067802 L80.7924212,152.014417 C79.8588794,152.041178 78.8370199,152.005147 77.7140186,151.891272 C72.2647221,151.338705 67.2776752,149.175502 62.7528778,145.401664 C61.6906923,144.411035 60.6157485,143.437157 59.5280465,142.48003 C57.747879,140.913566 57.4383518,139.397354 55.929437,139.397354 C54.8591826,139.397354 54.6514154,140.810405 54.3697081,142.48003 C54.0844085,144.170946 54.1312136,145.947387 54.5101235,147.809352 L57.8539972,149.180204 L64.3752344,149.180204 L67.3426871,150.16737 C68.7019338,150.584754 69.8069712,151.0906 70.6577992,151.684909 C71.9928383,152.617442 73.073668,153.638437 73.9002884,154.747895 L73.9000244,158.120064 L73.5921634,159.150931 L83.5015705,160.94161 Z M82.1709789,172.648112 C82.1989242,177.053144 82.8160692,182.532158 84.0224141,189.085154 C85.2644238,195.831886 85.2644238,197.67851 84.0224141,194.625025 L82.1700453,194.625025 C81.4356543,191.32111 80.8398275,186.496029 80.3825652,180.149782 C79.9253028,173.803534 79.9253028,168.002589 80.3825652,162.746944 L72.9067575,161.445999 L72.4750881,162.891435 C72.1011563,163.188919 71.6682566,163.380536 71.1763891,163.466286 C70.6845217,163.552035 70.018288,163.552035 69.1776882,163.466286 C68.3228214,162.800619 67.7620387,162.260416 67.4953399,161.845677 C67.2286412,161.430939 67.0885897,160.881286 67.0751856,160.19672 C67.0751856,158.812283 66.1752019,157.841387 64.3752344,157.284034 C62.5752669,156.72668 60.9595376,156.72668 59.5280465,157.284034 C53.4296294,158.398741 49.4214543,158.677418 47.5035214,158.120064 C45.5855884,157.562711 44.292276,155.242171 43.6235841,151.158445 C43.6655886,147.170657 43.7195969,144.615913 43.785609,143.49421 C44.5501428,130.50297 45.2802494,125.364943 45.6879109,123.401947 C46.1483705,121.184714 46.4697152,120.115448 46.6519451,120.19415 L50.3804208,117.513434 C53.1598993,116.599533 54.4896618,114.807849 54.3697081,112.138383 C54.1897777,108.134185 53.3162202,100.451849 53.3162202,98.0521135 C53.3162202,96.4522897 53.3162202,94.0956312 53.3162202,90.9821381 C55.4593148,89.7779625 56.7028398,88.6771724 57.0467953,87.6797677 C57.5627285,86.1836607 57.0467953,81.4060592 57.8539972,79.1832716 C58.6611991,76.9604841 68.6289499,64.4140611 70.321887,62.4895009 C71.4505116,61.2064607 72.1682454,58.8951991 72.4750881,55.5557159 L72.4750881,51.4878954 L70.321887,50.0703216 C69.4437732,48.2749932 68.3615394,46.7165898 67.0751856,45.3951115 C65.7888318,44.0736331 63.2731188,42.452602 59.5280465,40.5320181 C44.1262628,31.0914669 35.9213667,25.8817672 34.9133584,24.9029189 C33.9053501,23.9240706 33.9053501,22.5972904 34.9133584,20.9225784 L40.3808591,17.0843929 L44.8154624,18.0132707 L45.6879109,17.0843929 L45.6879109,15.1287665 L46.4458085,13.4188487 L48.2586175,13.4188487 L50.3804208,15.1287665 L53.3162202,19.419023 C60.6888963,24.1667107 67.0751856,27.8733071 72.4750881,30.538812 C80.5749419,34.5370694 141.702866,71.955527 148.824905,76.3862066 C153.57293,79.339993 162.970973,85.5010371 177.019032,94.869339 L181.223615,95.4873022 L184.414313,96.8753114 L184.414313,98.0521135 L182.213168,99.5550107 C182.213168,100.590864 182.51953,101.54493 183.132255,102.417209 C184.051342,103.725629 183.474441,104.711125 183.132255,105.299179 C182.790068,105.887233 176.46393,108.251107 174.287118,108.811785 C172.83591,109.185571 171.439958,108.998678 170.099264,108.251107 L161.00319,102.417209 L151.799645,96.8753114 L144.606127,91.9681057 C142.126163,90.1860329 139.914541,89.3781352 137.971261,89.5444124 C136.02798,89.7106896 134.401201,90.1899315 133.090923,90.9821381 C131.801261,91.3606313 130.69866,92.8623526 129.783121,95.4873022 C128.409814,99.4247264 128.764674,108.280509 128.764674,109.765851 C128.764674,111.251194 128.660243,122.144886 127.713781,124.130074 C126.767319,126.115262 124.707611,128.67076 121.689274,130.128221 C119.677049,131.099861 116.296586,132.949695 111.547884,135.677723 L106.387714,138.826851 L109.0299,139.397354 C110.857079,139.026624 112.596062,139.026624 114.246847,139.397354 C115.40689,139.657873 116.478736,140.289122 117.462385,141.2911 L116.283743,142.48003 L114.246847,141.2911 L111.547884,141.2911 L109.90691,141.2911 L107.01176,141.2911 L104.572859,140.243249 L101.842972,140.243249 C102.144772,141.4853 102.547961,143.694895 103.052538,146.872032 C103.557115,150.04917 103.557115,153.798514 103.052538,158.120064 C103.201404,159.475782 103.010625,160.533777 102.480199,161.294046 C102.023607,161.948489 101.227369,162.305208 100.091485,162.364203 L98.5219904,164.418335 L100.091485,165.464157 L101.842972,165.464157 L103.052538,166.439008 L105.482314,166.439008 L107.01176,166.439008 L109.0299,167.044298 L110.642991,168.281745 L110.642991,170.619765 L109.0299,170.619765 C107.536784,171.000986 106.051104,171.000986 104.572859,170.619765 C102.355491,170.047934 103.625383,170.619765 103.052538,170.619765 C102.670641,170.619765 102.267452,170.416143 101.842972,170.008899 L100.091485,169.220603 C99.5000519,169.220603 98.976887,169.220603 98.5219904,169.220603 C97.8396454,169.220603 97.4305427,168.281745 97.0219468,168.281745 C96.7495496,168.281745 96.2520698,168.281745 95.5295074,168.281745 L94.1409912,167.692171 L92.5775798,166.439008 L89.8786166,166.439008 L89.3103338,167.692171 L89.8786166,169.220603 L91.7913116,169.220603 L94.1409912,170.619765 L94.8253639,172.19585 L94.1409912,174.070017 L91.105925,174.070017 L87.8614915,175.02307 L83.9048034,174.070017 L82.1709789,172.648112 Z M86.8440112,158.121582 C86.8787956,158.12057 86.91379,158.120064 86.9489945,158.120064 C88.2511615,158.120064 90.6484937,156.996008 94.1409912,154.747895 L92.5775798,147.809352 C93.1980777,146.732279 92.7075261,146.732279 91.105925,147.809352 C89.3459172,148.992953 87.364164,151.077983 83.216232,151.782515 L86.8440112,158.121582 Z M80.2609957,54.5592799 C80.2963674,55.1936725 80.2160457,56.0853213 80.0200305,57.2342262 C79.6310014,59.5144448 79.2906477,61.2913808 78.9711232,62.3046199 C78.5946416,63.4984748 76.9150891,68.2095305 76.1942043,70.5102333 C75.303742,73.3521423 74.7846158,76.6724011 73.8080248,79.1105169 C72.6298898,82.0517987 70.7410212,84.9802379 68.1414188,87.8958346 L68.1414188,89.5945997 L70.1190024,90.1451396 L70.1190024,91.1179627 C71.235216,91.1308024 72.1058056,91.1308024 72.7307715,91.1179627 C73.7314762,91.0974035 75.0608051,91.2210714 76.7249733,91.8510019 C79.9481153,93.0710441 81.9343169,95.3107171 82.6835783,98.570021 L83.8830048,108.482272 L85.7815054,110.748813 C93.4650676,110.748813 98.7303438,111.08272 101.577334,111.750532 C104.424325,112.418345 106.664336,113.365652 108.297367,114.592453 L113.170101,114.592453 L116.706027,113.541561 C115.236906,109.043627 115.236906,105.365757 116.706027,102.507952 C117.776462,100.425689 118.929779,98.1887102 120.206039,96.3075425 C121.557186,94.3159936 123.017546,92.5270329 123.599941,91.662044 C124.205213,90.7630769 124.742947,89.6644773 125.293476,88.3877522 C125.773028,87.2756273 126.296919,86.2286437 126.441355,84.7269355 C126.648188,82.5764844 125.70105,80.7043449 123.599941,79.1105169 L85.7815054,54.5592799 L80.2609957,54.5592799 Z" id="Combined-Shape" fill="#888888"></path>
        <polygon id="Path-6" fill="#888888" points="123.899544 115.663116 226.902177 31.9013526 230.414804 29.5771416 126.322001 114.298265"></polygon>
        <polygon id="Path-6-Copy-2" fill="#888888" transform="translate(177.157174, 207.620129) rotate(69.000000) translate(-177.157174, -207.620129) " points="113.901494 257.665902 236.900227 159.898567 240.412854 157.574356 116.323951 256.301051"></polygon>
        <polygon id="Path-6-Copy-3" fill="#888888" transform="translate(169.157174, 229.120129) rotate(84.000000) translate(-169.157174, -229.120129) " points="103.101604 281.888146 231.700117 178.676323 235.212744 176.352112 105.524061 280.523295"></polygon>
        <polygon id="Path-6-Copy" fill="#888888" transform="translate(173.865990, 145.670526) rotate(20.000000) translate(-173.865990, -145.670526) " points="120.60836 188.713513 223.610992 104.951749 227.12362 102.627538 123.030816 187.348662"></polygon>
        <path d="M31.096,213.448 C31.096,214.856007 30.8160028,216.175994 30.256,217.408 C29.6959972,218.640006 28.8880053,219.711995 27.832,220.624 C26.7759947,221.536005 25.4960075,222.255997 23.992,222.784 C22.4879925,223.312003 20.7760096,223.576 18.856,223.576 C17.0959912,223.576 15.3360088,223.384002 13.576,223 C11.8159912,222.615998 10.1840075,222.056004 8.68,221.32 L10.264,215.32 C11.3840056,215.864003 12.647993,216.335998 14.056,216.736 C15.464007,217.136002 16.9839918,217.336 18.616,217.336 C19.9600067,217.336 21.0639957,217.088002 21.928,216.592 C22.7920043,216.095998 23.224,215.288006 23.224,214.168 C23.224,213.367996 22.8480038,212.640003 22.096,211.984 C21.3439962,211.327997 19.9760099,210.632004 17.992,209.896 C14.8559843,208.711994 12.5680072,207.360008 11.128,205.84 C9.6879928,204.319992 8.968,202.376012 8.968,200.008 C8.968,196.903984 9.98398984,194.536008 12.016,192.904 C14.0480102,191.271992 16.8559821,190.456 20.44,190.456 C22.2640091,190.456 24.0079917,190.655998 25.672,191.056 C27.3360083,191.456002 28.7439942,191.975997 29.896,192.616 L28.552,198.52 C27.4319944,197.975997 26.2080066,197.536002 24.88,197.2 C23.5519934,196.863998 22.184007,196.696 20.776,196.696 C19.5919941,196.696 18.6400036,196.895998 17.92,197.296 C17.1999964,197.696002 16.84,198.375995 16.84,199.336 C16.84,199.784002 16.9039994,200.167998 17.032,200.488 C17.1600006,200.808002 17.3919983,201.111999 17.728,201.4 C18.0640017,201.688001 18.535997,201.975999 19.144,202.264 C19.752003,202.552001 20.5199954,202.887998 21.448,203.272 C22.7920067,203.816003 24.0559941,204.391997 25.24,205 C26.4240059,205.608003 27.4479957,206.311996 28.312,207.112 C29.1760043,207.912004 29.8559975,208.823995 30.352,209.848 C30.8480025,210.872005 31.096,212.071993 31.096,213.448 Z M41.712,218.104 C40.4959939,216.631993 39.5680032,214.952009 38.928,213.064 C38.2879968,211.175991 37.968,209.160011 37.968,207.016 C37.968,204.743989 38.3279964,202.60801 39.048,200.608 C39.7680036,198.60799 40.823993,196.856008 42.216,195.352 C43.6080069,193.847992 45.3199898,192.656004 47.352,191.776 C49.3840101,190.895996 51.695987,190.456 54.288,190.456 C55.9200081,190.456 57.4399929,190.639998 58.848,191.008 C60.256007,191.376002 61.551994,191.879997 62.736,192.52 L66.48,187.96 L70.608,191.368 L66.864,195.928 C68.080006,197.432008 69.0079968,199.127991 69.648,201.016 C70.2880032,202.904009 70.608,204.903989 70.608,207.016 C70.608,209.288011 70.2400036,211.42399 69.504,213.424 C68.7679963,215.42401 67.7040069,217.175992 66.312,218.68 C64.919993,220.184008 63.21601,221.375996 61.2,222.256 C59.1839899,223.136004 56.8800129,223.576 54.288,223.576 C52.6559918,223.576 51.136007,223.392002 49.728,223.024 C48.3199929,222.655998 47.0240059,222.152003 45.84,221.512 L42.096,226.072 L37.968,222.664 L41.712,218.104 Z M45.84,207.016 C45.84,208.872009 46.1119972,210.567992 46.656,212.104 L58.464,197.752 C57.2479939,197.047996 55.8560078,196.696 54.288,196.696 C52.8799929,196.696 51.6560052,196.951997 50.616,197.464 C49.5759948,197.976003 48.6960036,198.687995 47.976,199.6 C47.2559964,200.512005 46.7200017,201.599994 46.368,202.864 C46.0159982,204.128006 45.84,205.511992 45.84,207.016 Z M54.288,217.336 C55.6640068,217.336 56.8799947,217.080003 57.936,216.568 C58.9920052,216.055997 59.8799964,215.344005 60.6,214.432 C61.3200036,213.519995 61.8559982,212.432006 62.208,211.168 C62.5600017,209.903994 62.736,208.520008 62.736,207.016 C62.736,205.09599 62.4480028,203.416007 61.872,201.976 L50.112,216.328 C51.2640057,217.000003 52.6559918,217.336 54.288,217.336 Z M103.352,201.16 C103.352,203.304011 102.752006,205.175992 101.552,206.776 C100.351994,208.376008 98.6800106,209.591996 96.5359999,210.424 L107.048,223 L97.3519999,223 L88.5679999,211.912 L87.1279999,211.912 L87.1279999,223 L79.2559999,223 L79.2559999,191.032 L89.4319999,191.032 C91.4160098,191.032 93.2559914,191.239998 94.9519999,191.656 C96.6480084,192.072002 98.1199937,192.695996 99.3679999,193.528 C100.616006,194.360004 101.591996,195.407994 102.296,196.672 C103.000003,197.936006 103.352,199.431991 103.352,201.16 Z M95.7679999,201.304 C95.7679999,199.863993 95.2080055,198.800003 94.0879999,198.112 C92.9679943,197.423997 91.40001,197.08 89.3839999,197.08 L87.1279999,197.08 L87.1279999,206.056 L89.0479999,206.056 C91.1600105,206.056 92.807994,205.640004 93.9919999,204.808 C95.1760058,203.975996 95.7679999,202.808008 95.7679999,201.304 Z M113.728,223 L113.728,191.032 L121.6,191.032 L121.6,206.344 L131.68,191.032 L140.56,191.032 L129.76,206.824 L141.328,223 L131.872,223 L121.6,207.352 L121.6,223 L113.728,223 Z M156.36,223 L148.488,223 L148.488,191.032 L156.36,191.032 L156.36,223 Z M189.248,191.032 L189.248,197.272 L180.656,197.272 L180.656,223 L172.784,223 L172.784,197.272 L164.192,197.272 L164.192,191.032 L189.248,191.032 Z M196.84,191.032 L216.76,191.032 L216.76,197.272 L204.712,197.272 L204.712,203.704 L216.184,203.704 L216.184,209.944 L204.712,209.944 L204.712,216.76 L216.904,216.76 L216.904,223 L196.84,223 L196.84,191.032 Z" id="SØRKITE-Copy-2" stroke="#FFFFFF" stroke-width="0.5" fill="#46CCD6"></path>
        <path d="M130.888,184 L130.888,170.828 L136.512,170.828 L136.512,172.604 L132.775,172.604 L132.775,176.4705 L136.031,176.4705 L136.031,178.2465 L132.775,178.2465 L132.775,182.113 L136.512,182.113 L136.512,184 L130.888,184 Z M146.738,174.6205 L144.851,174.6205 L144.851,174.195 C144.851,173.763331 144.749251,173.390252 144.54575,173.07575 C144.342249,172.761248 144.000003,172.604 143.519,172.604 C143.259999,172.604 143.050334,172.653333 142.89,172.752 C142.729666,172.850667 142.600167,172.973999 142.5015,173.122 C142.402833,173.282334 142.335,173.464249 142.298,173.66775 C142.261,173.871251 142.2425,174.083999 142.2425,174.306 C142.2425,174.565001 142.25175,174.780832 142.27025,174.9535 C142.28875,175.126168 142.335,175.280333 142.409,175.416 C142.483,175.551667 142.590916,175.668833 142.73275,175.7675 C142.874584,175.866167 143.068832,175.964833 143.3155,176.0635 L144.7585,176.637 C145.177836,176.797334 145.516999,176.985416 145.776,177.20125 C146.035001,177.417084 146.238499,177.666832 146.3865,177.9505 C146.522167,178.246501 146.614667,178.582581 146.664,178.95875 C146.713334,179.334919 146.738,179.763498 146.738,180.2445 C146.738,180.799503 146.682501,181.314414 146.5715,181.78925 C146.4605,182.264086 146.281668,182.667998 146.035,183.001 C145.775999,183.346335 145.436836,183.617666 145.0175,183.815 C144.598165,184.012334 144.086336,184.111 143.482,184.111 C143.025664,184.111 142.600169,184.030834 142.2055,183.8705 C141.810831,183.710166 141.471668,183.488168 141.188,183.2045 C140.904332,182.920832 140.679251,182.590919 140.51275,182.21475 C140.346249,181.838581 140.263,181.428502 140.263,180.9845 L140.263,180.2815 L142.15,180.2815 L142.15,180.8735 C142.15,181.218835 142.251749,181.530249 142.45525,181.80775 C142.658751,182.085251 143.000998,182.224 143.482,182.224 C143.802668,182.224 144.052416,182.17775 144.23125,182.08525 C144.410084,181.99275 144.548833,181.860168 144.6475,181.6875 C144.746167,181.514832 144.80475,181.308251 144.82325,181.06775 C144.84175,180.827249 144.851,180.559001 144.851,180.263 C144.851,179.917665 144.838667,179.634001 144.814,179.412 C144.789333,179.189999 144.74,179.011167 144.666,178.8755 C144.579666,178.739833 144.465584,178.628834 144.32375,178.5425 C144.181916,178.456166 143.993835,178.363667 143.7595,178.265 L142.409,177.71 C141.594996,177.376998 141.049251,176.936086 140.77175,176.38725 C140.494249,175.838414 140.3555,175.150837 140.3555,174.3245 C140.3555,173.831164 140.423333,173.362502 140.559,172.9185 C140.694667,172.474498 140.898165,172.092168 141.1695,171.7715 C141.428501,171.450832 141.758415,171.194918 142.15925,171.00375 C142.560085,170.812582 143.037997,170.717 143.593,170.717 C144.061669,170.717 144.490248,170.803332 144.87875,170.976 C145.267252,171.148668 145.603332,171.376832 145.887,171.6605 C146.454336,172.252503 146.738,172.93083 146.738,173.6955 L146.738,174.6205 Z M152.2835,184 L152.2835,172.604 L150.1005,172.604 L150.1005,170.828 L156.3535,170.828 L156.3535,172.604 L154.1705,172.604 L154.1705,184 L152.2835,184 Z M158.273,184 L158.273,182.113 L160.16,182.113 L160.16,184 L158.273,184 Z M170.807,184 L170.807,182.224 L174.211,175.8045 C174.383668,175.483832 174.482334,175.203251 174.507,174.96275 C174.531667,174.722249 174.544,174.423168 174.544,174.0655 C174.544,173.905166 174.540917,173.735584 174.53475,173.55675 C174.528584,173.377916 174.494667,173.220667 174.433,173.085 C174.371334,172.949333 174.278834,172.83525 174.1555,172.74275 C174.032167,172.65025 173.853335,172.604 173.619,172.604 C173.335332,172.604 173.110251,172.684166 172.94375,172.8445 C172.77725,173.004834 172.694,173.239165 172.694,173.5475 L172.694,174.6205 L170.807,174.6205 L170.807,173.5845 C170.807,173.189831 170.881,172.819835 171.029,172.4745 C171.177001,172.129165 171.380499,171.827001 171.6395,171.568 C171.886168,171.308999 172.182165,171.102417 172.5275,170.94825 C172.872836,170.794083 173.242832,170.717 173.6375,170.717 C174.130836,170.717 174.553249,170.806416 174.90475,170.98525 C175.256252,171.164084 175.549166,171.407665 175.7835,171.716 C176.005502,172.024335 176.168917,172.375831 176.27375,172.7705 C176.378584,173.165169 176.431,173.584498 176.431,174.0285 C176.431,174.349168 176.424834,174.617416 176.4125,174.83325 C176.400167,175.049084 176.375501,175.255666 176.3385,175.453 C176.3015,175.650334 176.239834,175.847666 176.1535,176.045 C176.067167,176.242334 175.950001,176.482832 175.802,176.7665 L173.027,182.113 L176.431,182.113 L176.431,184 L170.807,184 Z M180.589001,173.5475 C180.589001,173.103498 180.666083,172.708835 180.820251,172.3635 C180.974418,172.018165 181.180999,171.722168 181.440001,171.4755 C181.699002,171.228832 181.998082,171.040751 182.337251,170.91125 C182.676419,170.781749 183.030999,170.717 183.401001,170.717 C183.771002,170.717 184.125582,170.781749 184.464751,170.91125 C184.803919,171.040751 185.102999,171.228832 185.362001,171.4755 C185.621002,171.722168 185.827583,172.018165 185.981751,172.3635 C186.135918,172.708835 186.213001,173.103498 186.213001,173.5475 L186.213001,181.2805 C186.213001,181.724502 186.135918,182.119165 185.981751,182.4645 C185.827583,182.809835 185.621002,183.105832 185.362001,183.3525 C185.102999,183.599168 184.803919,183.787249 184.464751,183.91675 C184.125582,184.046251 183.771002,184.111 183.401001,184.111 C183.030999,184.111 182.676419,184.046251 182.337251,183.91675 C181.998082,183.787249 181.699002,183.599168 181.440001,183.3525 C181.180999,183.105832 180.974418,182.809835 180.820251,182.4645 C180.666083,182.119165 180.589001,181.724502 180.589001,181.2805 L180.589001,173.5475 Z M182.476001,181.2805 C182.476001,181.551835 182.562333,181.776916 182.735001,181.95575 C182.907668,182.134584 183.129666,182.224 183.401001,182.224 C183.672335,182.224 183.894333,182.134584 184.067001,181.95575 C184.239668,181.776916 184.326001,181.551835 184.326001,181.2805 L184.326001,173.5475 C184.326001,173.276165 184.239668,173.051084 184.067001,172.87225 C183.894333,172.693416 183.672335,172.604 183.401001,172.604 C183.129666,172.604 182.907668,172.693416 182.735001,172.87225 C182.562333,173.051084 182.476001,173.276165 182.476001,173.5475 L182.476001,181.2805 Z M190.371001,173.5475 C190.371001,173.103498 190.448083,172.708835 190.602251,172.3635 C190.756418,172.018165 190.962999,171.722168 191.222001,171.4755 C191.481002,171.228832 191.780082,171.040751 192.119251,170.91125 C192.458419,170.781749 192.812999,170.717 193.183001,170.717 C193.553003,170.717 193.907582,170.781749 194.246751,170.91125 C194.585919,171.040751 194.884999,171.228832 195.144001,171.4755 C195.403002,171.722168 195.609583,172.018165 195.763751,172.3635 C195.917918,172.708835 195.995001,173.103498 195.995001,173.5475 L195.995001,181.2805 C195.995001,181.724502 195.917918,182.119165 195.763751,182.4645 C195.609583,182.809835 195.403002,183.105832 195.144001,183.3525 C194.884999,183.599168 194.585919,183.787249 194.246751,183.91675 C193.907582,184.046251 193.553003,184.111 193.183001,184.111 C192.812999,184.111 192.458419,184.046251 192.119251,183.91675 C191.780082,183.787249 191.481002,183.599168 191.222001,183.3525 C190.962999,183.105832 190.756418,182.809835 190.602251,182.4645 C190.448083,182.119165 190.371001,181.724502 190.371001,181.2805 L190.371001,173.5475 Z M192.258001,181.2805 C192.258001,181.551835 192.344333,181.776916 192.517001,181.95575 C192.689668,182.134584 192.911666,182.224 193.183001,182.224 C193.454335,182.224 193.676333,182.134584 193.849001,181.95575 C194.021668,181.776916 194.108001,181.551835 194.108001,181.2805 L194.108001,173.5475 C194.108001,173.276165 194.021668,173.051084 193.849001,172.87225 C193.676333,172.693416 193.454335,172.604 193.183001,172.604 C192.911666,172.604 192.689668,172.693416 192.517001,172.87225 C192.344333,173.051084 192.258001,173.276165 192.258001,173.5475 L192.258001,181.2805 Z M200.153001,184 L200.153001,182.224 L203.557001,175.8045 C203.729668,175.483832 203.828334,175.203251 203.853001,174.96275 C203.877668,174.722249 203.890001,174.423168 203.890001,174.0655 C203.890001,173.905166 203.886917,173.735584 203.880751,173.55675 C203.874584,173.377916 203.840668,173.220667 203.779001,173.085 C203.717334,172.949333 203.624835,172.83525 203.501501,172.74275 C203.378167,172.65025 203.199335,172.604 202.965001,172.604 C202.681333,172.604 202.456252,172.684166 202.289751,172.8445 C202.12325,173.004834 202.040001,173.239165 202.040001,173.5475 L202.040001,174.6205 L200.153001,174.6205 L200.153001,173.5845 C200.153001,173.189831 200.227,172.819835 200.375001,172.4745 C200.523002,172.129165 200.726499,171.827001 200.985501,171.568 C201.232169,171.308999 201.528166,171.102417 201.873501,170.94825 C202.218836,170.794083 202.588832,170.717 202.983501,170.717 C203.476837,170.717 203.899249,170.806416 204.250751,170.98525 C204.602253,171.164084 204.895166,171.407665 205.129501,171.716 C205.351502,172.024335 205.514917,172.375831 205.619751,172.7705 C205.724585,173.165169 205.777001,173.584498 205.777001,174.0285 C205.777001,174.349168 205.770834,174.617416 205.758501,174.83325 C205.746167,175.049084 205.721501,175.255666 205.684501,175.453 C205.647501,175.650334 205.585835,175.847666 205.499501,176.045 C205.413167,176.242334 205.296002,176.482832 205.148001,176.7665 L202.373001,182.113 L205.777001,182.113 L205.777001,184 L200.153001,184 Z" id="EST.-2002" stroke="#FFFFFF" stroke-width="0.5" fill="#000000"></path>
    </g>
</svg>